<?xml version="1.0" encoding="UTF-8"?>
<svg xmlns="http://www.w3.org/2000/svg" xmlns:xlink="http://www.w3.org/1999/xlink" width="100px" height="100px" viewBox="0 0 100 100" version="1.1">
<g id="surface1">
<path style=" stroke:none;fill-rule:nonzero;fill:rgb(12.156863%,11.764706%,12.156863%);fill-opacity:1;" d="M 15.773438 13.328125 L 16.40625 13.378906 L 16.601562 13.429688 L 17.480469 13.476562 L 17.96875 13.574219 L 18.847656 13.964844 L 19.578125 14.550781 L 19.96875 14.890625 L 20.359375 15.28125 L 20.75 15.625 L 21.335938 16.210938 L 21.726562 16.554688 L 22.363281 17.089844 L 22.949219 17.675781 L 23.4375 18.117188 L 24.171875 18.847656 L 24.707031 19.289062 L 25.148438 19.726562 L 25.539062 20.070312 L 26.90625 21.4375 L 27.441406 21.875 L 28.078125 22.460938 L 29.296875 23.679688 L 29.835938 24.121094 L 30.617188 24.851562 L 32.03125 26.269531 L 32.570312 26.710938 L 33.054688 27.148438 L 34.617188 28.710938 L 35.15625 29.148438 L 35.890625 29.835938 L 37.988281 31.933594 L 38.671875 32.46875 L 39.0625 32.859375 L 39.453125 33.203125 L 40.234375 33.9375 L 40.722656 34.375 L 40.867188 34.472656 L 41.113281 34.421875 L 41.503906 34.082031 L 42.039062 33.546875 L 42.726562 33.054688 L 43.40625 32.664062 L 44.433594 32.179688 L 45.898438 31.640625 L 47.851562 30.957031 L 48.679688 30.566406 L 49.316406 30.078125 L 49.804688 29.640625 L 50.4375 29.101562 L 50.929688 28.710938 L 51.609375 28.222656 L 52.882812 27.539062 L 54.199219 26.855469 L 55.617188 26.125 L 56.6875 25.539062 L 57.46875 25.148438 L 58.300781 24.757812 L 59.226562 24.414062 L 59.914062 24.21875 L 60.695312 24.121094 L 60.839844 24.070312 L 61.523438 24.023438 L 63.476562 24.023438 L 64.257812 24.121094 L 65.867188 24.21875 L 67.675781 24.367188 L 70.996094 24.707031 L 72.414062 25.046875 L 73.242188 25.34375 L 73.925781 25.734375 L 74.414062 26.125 L 74.804688 26.414062 L 75.488281 27 L 75.976562 27.492188 L 76.320312 27.976562 L 76.710938 28.757812 L 76.90625 29.539062 L 77.050781 30.566406 L 77.148438 31.933594 L 77.148438 35.15625 L 79.003906 35.203125 L 79.980469 35.398438 L 80.710938 35.695312 L 81.59375 36.230469 L 82.324219 36.816406 L 83.105469 37.351562 L 84.082031 38.085938 L 84.8125 38.625 L 85.59375 39.210938 L 86.523438 39.890625 L 87.15625 40.382812 L 87.742188 40.917969 L 88.234375 41.453125 L 88.71875 42.140625 L 89.453125 43.507812 L 89.941406 44.53125 L 90.234375 45.410156 L 90.429688 46.140625 L 90.476562 46.484375 L 90.527344 47.3125 L 90.527344 47.949219 L 90.476562 49.171875 L 90.28125 49.757812 L 89.890625 50.195312 L 89.304688 50.4375 L 88.328125 50.683594 L 87.597656 50.78125 L 87.5 50.828125 L 87.5 51.367188 L 87.792969 52.441406 L 88.085938 54.199219 L 88.039062 54.835938 L 87.9375 55.859375 L 87.742188 56.445312 L 87.5 56.933594 L 87.011719 57.617188 L 86.425781 58.351562 L 86.132812 58.742188 L 85.546875 59.375 L 85.109375 59.914062 L 83.886719 61.132812 L 83.351562 61.523438 L 82.226562 62.109375 L 80.859375 62.695312 L 79.394531 63.28125 L 77.734375 63.867188 L 76.855469 64.109375 L 75.878906 64.304688 L 73.730469 64.601562 L 72.949219 64.695312 L 72.167969 64.941406 L 71.046875 65.476562 L 70.214844 65.773438 L 68.992188 66.015625 L 67.820312 66.164062 L 64.601562 66.453125 L 63.820312 66.648438 L 63.378906 66.945312 L 62.9375 67.382812 L 62.5 67.921875 L 62.0625 68.359375 L 61.425781 68.796875 L 60.9375 69.042969 L 59.523438 69.628906 L 58.691406 70.117188 L 57.8125 70.65625 L 56.6875 71.242188 L 55.8125 71.875 L 54.148438 73.046875 L 53.171875 73.730469 L 52.195312 74.316406 L 50.929688 74.902344 L 49.367188 75.4375 L 48.976562 75.632812 L 48.195312 77.246094 L 47.65625 78.367188 L 45.703125 82.273438 L 45.359375 82.859375 L 44.921875 83.445312 L 44.628906 83.789062 L 43.945312 84.328125 L 43.117188 84.914062 L 42.480469 85.304688 L 41.84375 85.546875 L 40.332031 85.9375 L 38.71875 86.230469 L 36.71875 86.425781 L 35.695312 86.425781 L 34.328125 86.179688 L 33.835938 85.984375 L 33.351562 85.59375 L 33.054688 85.203125 L 32.8125 84.667969 L 32.617188 83.9375 L 32.421875 82.8125 L 32.421875 81.492188 L 32.617188 80.273438 L 32.765625 79.539062 L 33.203125 78.027344 L 33.984375 75.585938 L 34.667969 73.390625 L 35.351562 71.242188 L 35.984375 69.289062 L 36.425781 67.871094 L 36.671875 66.796875 L 36.914062 65.382812 L 37.207031 64.355469 L 37.453125 63.769531 L 37.84375 63.085938 L 38.039062 62.546875 L 38.039062 62.257812 L 37.742188 61.816406 L 37.15625 61.085938 L 36.71875 60.351562 L 36.476562 60.15625 L 34.523438 60.058594 L 33.445312 59.960938 L 32.519531 59.863281 L 31.789062 59.71875 L 31.203125 59.523438 L 30.761719 59.226562 L 30.421875 58.835938 L 30.226562 58.351562 L 30.078125 57.765625 L 30.03125 57.421875 L 30.03125 56.054688 L 30.273438 54.980469 L 30.566406 54.394531 L 30.90625 54.003906 L 31.445312 53.613281 L 32.8125 52.78125 L 33.835938 52.148438 L 34.617188 51.660156 L 35.15625 51.320312 L 35.5 50.929688 L 35.5 49.367188 L 35.304688 48.875 L 34.960938 48.4375 L 34.277344 47.703125 L 32.617188 46.046875 L 32.273438 45.65625 L 31.835938 45.164062 L 28.757812 42.089844 L 28.757812 41.992188 L 28.664062 41.992188 L 28.320312 41.601562 L 27.734375 40.917969 L 24.953125 38.132812 L 24.511719 37.597656 L 23.925781 36.960938 L 21.4375 34.472656 L 21.09375 34.082031 L 20.65625 33.546875 L 19.726562 32.617188 L 19.382812 32.226562 L 17.96875 30.8125 L 17.429688 30.125 L 16.453125 29.148438 L 16.113281 28.757812 L 14.453125 27.101562 L 14.015625 26.5625 L 13.234375 25.734375 L 12.742188 25.292969 L 11.230469 23.78125 L 10.890625 23.390625 L 10.398438 22.851562 L 9.765625 21.972656 L 9.421875 21.242188 L 9.179688 20.214844 L 9.082031 19.484375 L 9.03125 19.289062 L 9.03125 16.648438 L 9.277344 15.671875 L 9.523438 15.1875 L 9.960938 14.746094 L 10.546875 14.40625 L 11.375 14.160156 L 12.742188 13.820312 L 13.429688 13.671875 L 13.964844 13.574219 L 14.746094 13.476562 L 15.429688 13.429688 Z M 15.773438 13.328125 "/>
<path style=" stroke:none;fill-rule:nonzero;fill:rgb(99.215686%,99.215686%,99.215686%);fill-opacity:1;" d="M 15.773438 13.328125 L 16.40625 13.378906 L 16.601562 13.429688 L 17.480469 13.476562 L 17.96875 13.574219 L 18.847656 13.964844 L 19.578125 14.550781 L 19.96875 14.890625 L 20.359375 15.28125 L 20.75 15.625 L 21.335938 16.210938 L 21.726562 16.554688 L 22.363281 17.089844 L 22.949219 17.675781 L 23.4375 18.117188 L 24.171875 18.847656 L 24.707031 19.289062 L 25.148438 19.726562 L 25.539062 20.070312 L 26.90625 21.4375 L 27.441406 21.875 L 28.078125 22.460938 L 29.296875 23.679688 L 29.835938 24.121094 L 30.617188 24.851562 L 32.03125 26.269531 L 32.570312 26.710938 L 33.054688 27.148438 L 34.617188 28.710938 L 35.15625 29.148438 L 35.890625 29.835938 L 37.988281 31.933594 L 38.671875 32.46875 L 39.0625 32.859375 L 39.453125 33.203125 L 40.234375 33.9375 L 40.722656 34.375 L 40.867188 34.472656 L 41.113281 34.421875 L 41.503906 34.082031 L 42.039062 33.546875 L 42.726562 33.054688 L 43.40625 32.664062 L 44.433594 32.179688 L 45.898438 31.640625 L 47.851562 30.957031 L 48.679688 30.566406 L 49.316406 30.078125 L 49.804688 29.640625 L 50.4375 29.101562 L 50.929688 28.710938 L 51.609375 28.222656 L 52.882812 27.539062 L 54.199219 26.855469 L 55.617188 26.125 L 56.6875 25.539062 L 57.46875 25.148438 L 58.300781 24.757812 L 59.226562 24.414062 L 59.914062 24.21875 L 60.695312 24.121094 L 60.839844 24.070312 L 61.523438 24.023438 L 63.476562 24.023438 L 64.257812 24.121094 L 65.867188 24.21875 L 67.675781 24.367188 L 70.996094 24.707031 L 72.414062 25.046875 L 73.242188 25.34375 L 73.925781 25.734375 L 74.414062 26.125 L 74.804688 26.414062 L 75.488281 27 L 75.976562 27.492188 L 76.320312 27.976562 L 76.710938 28.757812 L 76.90625 29.539062 L 77.050781 30.566406 L 77.148438 31.933594 L 77.148438 35.15625 L 79.003906 35.203125 L 79.980469 35.398438 L 80.710938 35.695312 L 81.59375 36.230469 L 82.324219 36.816406 L 83.105469 37.351562 L 84.082031 38.085938 L 84.8125 38.625 L 85.59375 39.210938 L 86.523438 39.890625 L 87.15625 40.382812 L 87.742188 40.917969 L 88.234375 41.453125 L 88.71875 42.140625 L 89.453125 43.507812 L 89.941406 44.53125 L 90.234375 45.410156 L 90.429688 46.140625 L 90.476562 46.484375 L 90.527344 47.3125 L 90.527344 47.949219 L 90.476562 49.171875 L 90.28125 49.757812 L 89.890625 50.195312 L 89.304688 50.4375 L 88.328125 50.683594 L 87.597656 50.78125 L 87.5 50.828125 L 87.5 51.367188 L 87.792969 52.441406 L 88.085938 54.199219 L 88.039062 54.835938 L 87.9375 55.859375 L 87.742188 56.445312 L 87.5 56.933594 L 87.011719 57.617188 L 86.425781 58.351562 L 86.132812 58.742188 L 85.546875 59.375 L 85.109375 59.914062 L 83.886719 61.132812 L 83.351562 61.523438 L 82.226562 62.109375 L 80.859375 62.695312 L 79.394531 63.28125 L 77.734375 63.867188 L 76.855469 64.109375 L 75.878906 64.304688 L 73.730469 64.601562 L 72.949219 64.695312 L 72.167969 64.941406 L 71.046875 65.476562 L 70.214844 65.773438 L 68.992188 66.015625 L 67.820312 66.164062 L 64.601562 66.453125 L 63.820312 66.648438 L 63.378906 66.945312 L 62.9375 67.382812 L 62.5 67.921875 L 62.0625 68.359375 L 61.425781 68.796875 L 60.9375 69.042969 L 59.523438 69.628906 L 58.691406 70.117188 L 57.8125 70.65625 L 56.6875 71.242188 L 55.8125 71.875 L 54.148438 73.046875 L 53.171875 73.730469 L 52.195312 74.316406 L 50.929688 74.902344 L 49.367188 75.4375 L 48.976562 75.632812 L 48.195312 77.246094 L 47.65625 78.367188 L 45.703125 82.273438 L 45.359375 82.859375 L 44.921875 83.445312 L 44.628906 83.789062 L 43.945312 84.328125 L 43.117188 84.914062 L 42.480469 85.304688 L 41.84375 85.546875 L 40.332031 85.9375 L 38.71875 86.230469 L 36.71875 86.425781 L 35.695312 86.425781 L 34.328125 86.179688 L 33.835938 85.984375 L 33.351562 85.59375 L 33.054688 85.203125 L 32.8125 84.667969 L 32.617188 83.9375 L 32.421875 82.8125 L 32.421875 81.492188 L 32.617188 80.273438 L 32.765625 79.539062 L 33.203125 78.027344 L 33.984375 75.585938 L 34.667969 73.390625 L 35.351562 71.242188 L 35.984375 69.289062 L 36.425781 67.871094 L 36.671875 66.796875 L 36.914062 65.382812 L 37.207031 64.355469 L 37.453125 63.769531 L 37.84375 63.085938 L 38.039062 62.546875 L 38.039062 62.257812 L 37.742188 61.816406 L 37.15625 61.085938 L 36.71875 60.351562 L 36.476562 60.15625 L 34.523438 60.058594 L 33.445312 59.960938 L 32.519531 59.863281 L 31.789062 59.71875 L 31.203125 59.523438 L 30.761719 59.226562 L 30.421875 58.835938 L 30.226562 58.351562 L 30.078125 57.765625 L 30.03125 57.421875 L 30.03125 56.054688 L 30.273438 54.980469 L 30.566406 54.394531 L 30.90625 54.003906 L 31.445312 53.613281 L 32.8125 52.78125 L 33.835938 52.148438 L 34.617188 51.660156 L 35.15625 51.320312 L 35.5 50.929688 L 35.5 49.367188 L 35.304688 48.875 L 34.960938 48.4375 L 34.277344 47.703125 L 32.617188 46.046875 L 32.273438 45.65625 L 31.835938 45.164062 L 28.757812 42.089844 L 28.757812 41.992188 L 28.664062 41.992188 L 28.320312 41.601562 L 27.734375 40.917969 L 24.953125 38.132812 L 24.511719 37.597656 L 23.925781 36.960938 L 21.4375 34.472656 L 21.09375 34.082031 L 20.65625 33.546875 L 19.726562 32.617188 L 19.382812 32.226562 L 17.96875 30.8125 L 17.429688 30.125 L 16.453125 29.148438 L 16.113281 28.757812 L 14.453125 27.101562 L 14.015625 26.5625 L 13.234375 25.734375 L 12.742188 25.292969 L 11.230469 23.78125 L 10.890625 23.390625 L 10.398438 22.851562 L 9.765625 21.972656 L 9.421875 21.242188 L 9.179688 20.214844 L 9.082031 19.484375 L 9.03125 19.289062 L 9.03125 16.648438 L 9.277344 15.671875 L 9.523438 15.1875 L 9.960938 14.746094 L 10.546875 14.40625 L 11.375 14.160156 L 12.742188 13.820312 L 13.429688 13.671875 L 13.964844 13.574219 L 14.746094 13.476562 L 15.429688 13.429688 Z M 15.820312 15.820312 L 12.84375 16.503906 L 11.816406 16.75 L 11.523438 16.894531 L 11.476562 16.992188 L 11.476562 17.726562 L 11.671875 19.679688 L 11.816406 20.164062 L 12.207031 20.703125 L 13.769531 22.265625 L 14.109375 22.65625 L 14.941406 23.484375 L 14.992188 23.585938 L 15.136719 23.585938 L 15.234375 23.78125 L 15.671875 24.265625 L 16.164062 24.804688 L 17.1875 25.828125 L 17.921875 26.609375 L 18.117188 26.855469 L 18.3125 26.90625 L 18.359375 27.101562 L 18.457031 27.101562 L 18.554688 27.296875 L 18.945312 27.734375 L 19.289062 28.027344 L 19.96875 28.808594 L 20.3125 29.101562 L 20.996094 29.882812 L 21.289062 30.125 L 21.632812 30.515625 L 22.460938 31.347656 L 23.144531 32.128906 L 23.4375 32.375 L 23.78125 32.765625 L 23.976562 33.007812 L 24.265625 33.25 L 24.609375 33.640625 L 24.953125 33.984375 L 25.148438 34.226562 L 25.4375 34.472656 L 25.78125 34.863281 L 26.5625 35.644531 L 26.90625 36.035156 L 27.585938 36.71875 L 28.273438 37.5 L 28.613281 37.792969 L 28.953125 38.183594 L 29.640625 38.867188 L 29.980469 39.257812 L 30.957031 40.234375 L 31.296875 40.625 L 31.640625 40.96875 L 31.6875 41.0625 L 31.835938 41.0625 L 31.933594 41.257812 L 32.375 41.75 L 33.300781 42.675781 L 33.640625 43.066406 L 34.03125 43.507812 L 34.421875 43.847656 L 35.109375 44.578125 L 35.59375 45.070312 L 35.9375 45.460938 L 36.425781 45.945312 L 36.621094 46.191406 L 36.914062 46.4375 L 37.15625 46.777344 L 37.351562 46.972656 L 37.792969 47.65625 L 37.988281 48.195312 L 38.085938 48.632812 L 38.085938 50.539062 L 38.28125 51.023438 L 38.378906 51.21875 L 38.476562 51.21875 L 38.574219 51.414062 L 38.914062 51.757812 L 39.109375 51.855469 L 39.0625 52.050781 L 38.671875 52.390625 L 37.9375 52.832031 L 36.71875 53.613281 L 35.742188 54.199219 L 34.8125 54.785156 L 33.9375 55.320312 L 32.765625 56.054688 L 32.46875 56.296875 L 32.375 56.445312 L 32.375 56.933594 L 32.519531 57.324219 L 33.007812 57.421875 L 34.667969 57.570312 L 36.523438 57.570312 L 37.304688 57.519531 L 38.183594 57.519531 L 38.625 58.203125 L 39.109375 59.082031 L 39.5 59.667969 L 39.890625 60.058594 L 39.992188 60.058594 L 39.992188 60.15625 L 40.578125 60.5 L 40.722656 60.5 L 40.820312 60.789062 L 41.0625 61.230469 L 41.113281 61.914062 L 41.015625 61.914062 L 40.625 63.28125 L 40.28125 64.5 L 40.085938 64.890625 L 39.550781 65.429688 L 39.355469 65.917969 L 39.109375 67.871094 L 38.914062 68.75 L 38.429688 70.359375 L 37.546875 73.144531 L 36.867188 75.34375 L 36.375 76.855469 L 35.5 79.589844 L 34.914062 81.445312 L 34.863281 81.6875 L 34.863281 82.765625 L 35.058594 83.300781 L 35.304688 83.742188 L 35.5 83.984375 L 35.695312 84.03125 L 36.523438 84.03125 L 37.5 83.886719 L 40.722656 83.25 L 41.210938 83.007812 L 41.40625 82.765625 L 41.648438 82.375 L 41.699219 82.226562 L 41.945312 82.128906 L 42.429688 82.078125 L 42.726562 81.882812 L 43.015625 81.492188 L 44.433594 78.664062 L 44.921875 77.734375 L 46.09375 75.390625 L 46.484375 74.65625 L 47.023438 73.585938 L 47.023438 73.4375 L 47.117188 73.4375 L 47.117188 73.339844 L 47.21875 73.339844 L 47.21875 73.242188 L 47.65625 73.195312 L 48.875 72.898438 L 49.804688 72.558594 L 50.632812 72.167969 L 51.660156 71.53125 L 51.660156 71.4375 L 51.90625 71.335938 L 52.539062 70.851562 L 52.882812 70.605469 L 52.882812 70.507812 L 53.078125 70.460938 L 53.078125 70.359375 L 53.320312 70.265625 L 53.320312 70.164062 L 53.5625 70.070312 L 54.054688 69.726562 L 54.054688 69.628906 L 54.296875 69.53125 L 54.394531 69.484375 L 54.394531 69.382812 L 54.640625 69.289062 L 55.371094 68.898438 L 56.25 68.507812 L 56.59375 68.3125 L 56.59375 68.210938 L 56.835938 68.117188 L 57.324219 67.726562 L 57.765625 67.382812 L 58.15625 67.1875 L 59.375 66.894531 L 59.914062 66.601562 L 60.253906 66.308594 L 60.449219 66.015625 L 60.695312 65.773438 L 60.839844 65.578125 L 60.839844 65.476562 L 61.035156 65.382812 L 61.816406 64.550781 L 62.109375 64.304688 L 62.109375 64.210938 L 63.378906 64.109375 L 67.871094 63.671875 L 68.898438 63.476562 L 69.628906 63.183594 L 70.3125 62.695312 L 70.554688 62.5 L 70.945312 62.402344 L 74.414062 62.011719 L 75.585938 61.816406 L 77.34375 61.230469 L 79.25 60.5 L 80.664062 59.914062 L 81.542969 59.523438 L 81.789062 59.328125 L 82.03125 59.082031 L 82.617188 58.398438 L 82.664062 58.25 L 82.859375 58.15625 L 83.054688 57.859375 L 83.300781 57.617188 L 83.742188 57.128906 L 84.082031 56.738281 L 84.179688 56.542969 L 84.328125 56.492188 L 84.71875 56.007812 L 85.253906 55.421875 L 85.546875 55.03125 L 85.644531 54.734375 L 85.644531 54.101562 L 85.5 53.5625 L 84.421875 51.320312 L 84.277344 50.929688 L 84.179688 50.929688 L 84.179688 50.585938 L 84.277344 50.585938 L 84.765625 49.511719 L 85.695312 47.65625 L 85.695312 47.558594 L 86.28125 47.851562 L 86.960938 48.242188 L 87.304688 48.339844 L 88.085938 48.339844 L 88.328125 48.242188 L 88.28125 47.753906 L 87.988281 46.777344 L 87.597656 45.898438 L 87.207031 45.117188 L 86.425781 43.601562 L 86.179688 43.210938 L 86.085938 43.210938 L 85.984375 43.015625 L 85.839844 42.96875 L 85.839844 42.871094 L 85.644531 42.820312 L 85.644531 42.726562 L 85.15625 42.382812 L 84.617188 41.992188 L 84.375 41.894531 L 84.375 41.796875 L 84.179688 41.75 L 84.179688 41.648438 L 83.640625 41.308594 L 82.8125 40.671875 L 82.570312 40.578125 L 82.570312 40.476562 L 82.03125 40.136719 L 81.347656 39.601562 L 80.710938 39.160156 L 79.835938 38.523438 L 79.296875 38.132812 L 78.664062 37.695312 L 78.417969 37.597656 L 77.976562 37.597656 L 76.609375 37.792969 L 74.171875 38.234375 L 70.410156 39.015625 L 70.265625 39.0625 L 70.265625 38.132812 L 70.460938 37.695312 L 70.800781 37.351562 L 71.484375 36.867188 L 72.363281 36.230469 L 72.898438 35.789062 L 73.535156 35.304688 L 74.316406 34.667969 L 74.609375 34.421875 L 74.757812 34.179688 L 74.757812 32.910156 L 74.511719 30.273438 L 74.367188 29.785156 L 74.023438 29.445312 L 73.632812 29.148438 L 72.949219 28.5625 L 72.851562 28.5625 L 72.851562 28.46875 L 72.65625 28.320312 L 72.558594 28.320312 L 72.558594 28.222656 L 72.167969 27.929688 L 72.023438 27.882812 L 72.023438 27.78125 L 71.53125 27.441406 L 71.242188 27.296875 L 69.289062 27.101562 L 63.574219 26.609375 L 62.453125 26.515625 L 61.132812 26.515625 L 60.5 26.710938 L 59.375 27.246094 L 58.054688 27.929688 L 56.203125 28.859375 L 55.46875 29.25 L 54.34375 29.785156 L 53.5625 30.175781 L 52.832031 30.566406 L 52.539062 31.007812 L 52.296875 31.296875 L 51.515625 31.882812 L 51.023438 32.273438 L 50.488281 32.714844 L 49.707031 33.15625 L 48.484375 33.59375 L 47.167969 33.984375 L 46.046875 34.375 L 45.117188 34.8125 L 44.433594 35.253906 L 43.945312 35.644531 L 43.359375 36.230469 L 42.773438 37.15625 L 42.335938 37.9375 L 41.945312 38.574219 L 41.75 38.625 L 41.0625 38.28125 L 40.332031 37.84375 L 39.992188 37.597656 L 39.890625 37.597656 L 39.890625 37.5 L 39.648438 37.402344 L 39.648438 37.304688 L 39.109375 36.867188 L 38.574219 36.328125 L 38.183594 35.984375 L 37.351562 35.203125 L 36.960938 34.8125 L 36.570312 34.472656 L 36.132812 34.03125 L 35.742188 33.691406 L 35.007812 32.960938 L 34.617188 32.617188 L 34.179688 32.179688 L 33.835938 31.882812 L 33.59375 31.640625 L 32.765625 30.859375 L 32.375 30.46875 L 31.984375 30.125 L 31.542969 29.6875 L 31.152344 29.34375 L 30.8125 29.003906 L 30.421875 28.664062 L 30.078125 28.320312 L 29.6875 27.976562 L 29.34375 27.636719 L 28.953125 27.296875 L 28.46875 26.804688 L 28.078125 26.464844 L 27.6875 26.074219 L 27.296875 25.734375 L 26.953125 25.390625 L 26.5625 25.046875 L 26.023438 24.5625 L 25.78125 24.316406 L 24.953125 23.535156 L 24.316406 22.949219 L 23.730469 22.414062 L 23.144531 21.828125 L 22.753906 21.484375 L 22.363281 21.09375 L 21.972656 20.75 L 21.4375 20.265625 L 21.191406 20.019531 L 20.703125 19.578125 L 20.117188 18.992188 L 19.875 18.796875 L 19.628906 18.554688 L 19.238281 18.210938 L 19.042969 17.96875 L 18.652344 17.625 L 18.40625 17.382812 L 18.3125 17.382812 L 18.210938 17.1875 L 17.820312 16.84375 L 17.335938 16.40625 L 17.089844 16.164062 L 16.992188 16.164062 L 16.992188 16.0625 L 16.554688 15.820312 Z M 15.820312 15.820312 "/>
<path style=" stroke:none;fill-rule:nonzero;fill:rgb(41.568627%,30.196078%,58.823529%);fill-opacity:1;" d="M 62.0625 27.734375 L 62.988281 27.734375 L 69.042969 28.273438 L 70.214844 28.417969 L 70.703125 28.664062 L 71.335938 29.199219 L 72.023438 29.734375 L 72.507812 30.175781 L 73 30.566406 L 73.339844 31.101562 L 73.484375 31.640625 L 73.585938 32.324219 L 73.585938 32.960938 L 73.4375 33.351562 L 73 33.835938 L 72.265625 34.421875 L 71.632812 34.914062 L 70.75 35.59375 L 69.96875 36.179688 L 69.289062 36.71875 L 69.09375 36.960938 L 69.09375 38.328125 L 69.140625 38.914062 L 69.140625 39.992188 L 69.042969 41.75 L 68.945312 42.089844 L 68.507812 42.480469 L 67.53125 43.117188 L 67.039062 43.359375 L 66.210938 43.601562 L 65.867188 43.652344 L 65.136719 43.652344 L 62.84375 42.871094 L 62.402344 42.820312 L 61.621094 43.210938 L 60.253906 43.945312 L 59.226562 44.53125 L 57.859375 45.265625 L 57.46875 45.460938 L 57.273438 45.460938 L 57.273438 45.019531 L 56.789062 45.164062 L 56.59375 45.3125 L 56.492188 45.3125 L 56.492188 45.507812 L 56.6875 45.410156 L 57.03125 45.214844 L 57.128906 45.214844 L 57.128906 45.507812 L 56.933594 45.703125 L 56.007812 46.191406 L 55.320312 46.4375 L 54.785156 46.484375 L 54.101562 46.289062 L 52.6875 45.703125 L 52.390625 45.65625 L 51.855469 45.945312 L 51.269531 46.242188 L 51.023438 46.289062 L 50.195312 46.726562 L 49.757812 47.117188 L 49.414062 47.117188 L 48.09375 46.726562 L 46.972656 46.386719 L 46.53125 46.191406 L 45.800781 45.75 L 45.460938 45.75 L 45.359375 45.898438 L 45.359375 46.140625 L 45.75 46.386719 L 46.921875 46.777344 L 47.703125 47.117188 L 48.09375 47.265625 L 48.535156 47.804688 L 48.289062 48 L 47.65625 48.484375 L 47.167969 48.925781 L 46.679688 49.265625 L 46.191406 49.5625 L 45.996094 49.902344 L 43.796875 49.902344 L 43.796875 50 L 45.117188 50 L 45.996094 50.046875 L 45.898438 50.292969 L 44.824219 50.878906 L 44.578125 50.828125 L 44.140625 50.488281 L 43.898438 50.390625 L 43.457031 50.390625 L 43.457031 50.4375 L 43.945312 50.488281 L 44.335938 50.78125 L 44.484375 50.929688 L 44.382812 51.125 L 43.847656 51.464844 L 43.210938 52 L 43.015625 52.246094 L 42.675781 52.195312 L 41.699219 51.757812 L 41.015625 51.414062 L 40.476562 50.976562 L 40.527344 50.828125 L 40.917969 50.683594 L 42.285156 50.34375 L 43.117188 50.097656 L 43.210938 50.046875 L 42.773438 50.097656 L 40.820312 50.585938 L 40.136719 50.585938 L 39.648438 50.390625 L 39.40625 50.148438 L 39.257812 49.953125 L 39.210938 49.804688 L 39.210938 48.976562 L 39.257812 47.804688 L 39.5 47.898438 L 39.84375 48.144531 L 39.992188 48.195312 L 40.382812 48.195312 L 40.867188 47.851562 L 41.601562 47.21875 L 42.1875 46.726562 L 42.871094 46.191406 L 43.261719 45.75 L 43.601562 45.019531 L 43.898438 43.992188 L 44.335938 42.871094 L 44.433594 42.285156 L 44.433594 41.699219 L 44.289062 40.773438 L 44.09375 39.992188 L 43.898438 39.648438 L 43.40625 39.355469 L 43.359375 39.304688 L 43.40625 38.964844 L 44.042969 37.742188 L 44.53125 37.109375 L 44.875 36.765625 L 45.800781 36.132812 L 46.726562 35.644531 L 47.851562 35.203125 L 49.953125 34.472656 L 51.21875 34.082031 L 51.855469 34.082031 L 53.613281 34.667969 L 54.394531 34.960938 L 54.882812 35.253906 L 55.566406 35.789062 L 55.957031 36.230469 L 56.492188 36.960938 L 56.933594 37.695312 L 57.128906 38.039062 L 57.128906 38.183594 L 56.6875 38.378906 L 56.492188 38.476562 L 56.398438 38.964844 L 56.101562 39.40625 L 55.566406 39.992188 L 55.421875 40.1875 L 55.90625 39.796875 L 56.492188 39.160156 L 56.835938 38.867188 L 57.570312 38.523438 L 59.277344 37.890625 L 60.644531 37.351562 L 62.402344 36.671875 L 62.84375 36.375 L 62.792969 36.179688 L 62.351562 35.695312 L 61.816406 35.007812 L 61.328125 34.375 L 60.9375 33.886719 L 60.5 33.398438 L 60.15625 33.007812 L 59.421875 32.324219 L 58.886719 31.882812 L 58.300781 31.398438 L 57.664062 30.957031 L 57.46875 30.90625 L 55.90625 30.8125 L 55.90625 30.664062 L 56.6875 30.226562 L 57.910156 29.640625 L 58.835938 29.148438 L 59.914062 28.613281 L 60.984375 28.027344 L 61.523438 27.832031 Z M 62.0625 27.734375 "/>
<path style=" stroke:none;fill-rule:nonzero;fill:rgb(41.568627%,30.196078%,58.823529%);fill-opacity:1;" d="M 76.855469 38.964844 L 77.636719 38.964844 L 78.078125 39.109375 L 78.5625 39.40625 L 79.25 39.941406 L 80.078125 40.625 L 80.566406 41.015625 L 81.25 41.554688 L 81.882812 42.039062 L 82.765625 42.726562 L 83.546875 43.3125 L 84.375 43.898438 L 84.8125 44.238281 L 85.351562 44.773438 L 85.695312 45.3125 L 85.839844 45.605469 L 85.839844 45.800781 L 85.59375 45.898438 L 85.15625 45.996094 L 84.914062 46.191406 L 84.472656 46.875 L 83.789062 48.144531 L 83.300781 49.070312 L 82.910156 49.902344 L 82.714844 50.488281 L 82.714844 51.367188 L 82.910156 51.757812 L 83.351562 52.390625 L 83.886719 53.417969 L 84.179688 54.101562 L 84.132812 54.394531 L 83.496094 55.125 L 83.054688 55.664062 L 82.421875 56.347656 L 81.984375 56.882812 L 81.203125 57.714844 L 80.761719 58.25 L 80.515625 58.445312 L 80.175781 58.351562 L 79.835938 58.054688 L 79.882812 57.8125 L 80.175781 57.421875 L 80.421875 57.128906 L 80.515625 56.789062 L 80.320312 56.789062 L 80.175781 57.273438 L 79.734375 57.8125 L 79.6875 57.859375 L 79.34375 57.8125 L 78.859375 57.519531 L 78.808594 57.324219 L 78.90625 57.128906 L 78.613281 57.226562 L 78.171875 57.179688 L 76.804688 56.542969 L 74.414062 55.371094 L 74.414062 55.226562 L 74.953125 54.785156 L 75.148438 54.539062 L 75.148438 54.296875 L 74.804688 54.101562 L 74.5625 54.054688 L 74.21875 54.054688 L 73.78125 54.394531 L 73.390625 54.734375 L 73.09375 54.734375 L 72.898438 54.640625 L 73 54.445312 L 73.828125 53.757812 L 74.609375 53.171875 L 74.902344 52.882812 L 74.953125 52.585938 L 74.65625 52.6875 L 74.171875 53.027344 L 73.4375 53.613281 L 72.65625 54.199219 L 72.21875 54.492188 L 71.777344 54.445312 L 70.3125 53.953125 L 68.3125 53.222656 L 66.359375 52.492188 L 65.722656 52.246094 L 65.671875 52.148438 L 66.40625 51.855469 L 71.484375 50.097656 L 71.972656 49.902344 L 71.972656 49.5625 L 71.921875 49.511719 L 70.996094 49.511719 L 68.117188 49.757812 L 66.601562 49.851562 L 65.578125 49.851562 L 65.332031 49.757812 L 64.695312 48.585938 L 64.109375 47.507812 L 63.378906 46.191406 L 62.402344 44.484375 L 62.257812 44.140625 L 62.304688 43.992188 L 64.0625 44.578125 L 66.359375 45.359375 L 67.726562 45.75 L 69.484375 46.140625 L 71.140625 46.4375 L 71.921875 46.53125 L 72.753906 46.53125 L 73.535156 46.335938 L 74.804688 45.75 L 76.074219 45.019531 L 77.296875 44.335938 L 77.78125 43.898438 L 78.078125 43.554688 L 78.320312 43.164062 L 78.664062 42.335938 L 78.90625 41.554688 L 78.90625 40.96875 L 78.613281 40.527344 L 78.125 40.085938 L 77.492188 39.695312 L 76.953125 39.5 L 76.757812 39.453125 L 75.878906 39.453125 L 75.097656 39.601562 L 72.949219 40.1875 L 70.945312 40.773438 L 70.507812 40.820312 L 70.164062 40.527344 L 70.214844 40.382812 L 76.464844 39.0625 Z M 76.855469 38.964844 "/>
<path style=" stroke:none;fill-rule:nonzero;fill:rgb(41.176471%,29.803922%,58.431373%);fill-opacity:1;" d="M 15.773438 17.285156 L 16.0625 17.382812 L 16.453125 17.726562 L 17.039062 18.261719 L 17.578125 18.796875 L 17.96875 19.140625 L 18.507812 19.679688 L 18.898438 20.019531 L 19.289062 20.410156 L 19.679688 20.75 L 20.019531 21.09375 L 20.410156 21.4375 L 20.75 21.777344 L 21.140625 22.117188 L 22.117188 23.09375 L 22.507812 23.4375 L 24.023438 24.851562 L 24.5625 25.390625 L 24.953125 25.734375 L 25.292969 26.023438 L 25.292969 26.125 L 25.488281 26.21875 L 26.171875 26.90625 L 26.5625 27.246094 L 27.148438 27.832031 L 27.539062 28.171875 L 28.078125 28.710938 L 28.46875 29.054688 L 29.25 29.785156 L 30.03125 30.566406 L 30.421875 30.90625 L 30.859375 31.347656 L 31.25 31.6875 L 32.714844 33.054688 L 33.25 33.59375 L 33.351562 33.640625 L 33.351562 33.742188 L 33.445312 33.742188 L 33.789062 34.132812 L 33.9375 34.472656 L 33.886719 35.449219 L 34.132812 34.570312 L 34.375 34.667969 L 34.71875 35.007812 L 34.765625 35.15625 L 34.765625 35.5 L 34.8125 35.15625 L 35.007812 35.253906 L 35.839844 36.035156 L 35.839844 36.375 L 35.5 37.890625 L 35.449219 38.28125 L 35.695312 37.648438 L 35.890625 36.71875 L 35.984375 36.230469 L 36.085938 36.230469 L 36.960938 37.109375 L 37.351562 37.453125 L 37.695312 37.742188 L 37.695312 37.84375 L 37.890625 37.9375 L 38.378906 38.429688 L 38.476562 38.574219 L 38.476562 39.160156 L 38.328125 39.890625 L 38.039062 40.722656 L 37.648438 41.40625 L 37.109375 42.039062 L 36.914062 42.382812 L 37.011719 42.382812 L 37.011719 42.285156 L 37.402344 41.945312 L 37.9375 41.308594 L 38.28125 40.625 L 38.476562 39.890625 L 38.625 38.914062 L 38.671875 38.820312 L 38.914062 38.867188 L 39.992188 39.40625 L 41.210938 39.796875 L 42.234375 39.992188 L 43.164062 40.136719 L 43.40625 40.28125 L 43.507812 40.578125 L 43.554688 41.015625 L 43.554688 42.089844 L 43.3125 43.359375 L 42.921875 44.824219 L 42.675781 45.3125 L 42.335938 45.703125 L 41.945312 46.046875 L 41.601562 46.386719 L 41.0625 46.828125 L 40.671875 47.21875 L 40.1875 47.609375 L 39.992188 47.558594 L 39.796875 47.3125 L 39.40625 46.972656 L 38.671875 46.242188 L 38.328125 45.851562 L 37.890625 45.410156 L 37.546875 45.019531 L 37.0625 44.53125 L 36.71875 44.140625 L 36.132812 43.554688 L 35.789062 43.164062 L 35.058594 42.382812 L 34.179688 41.503906 L 33.835938 41.113281 L 33.398438 40.671875 L 33.054688 40.28125 L 32.324219 39.550781 L 32.375 39.355469 L 32.714844 39.015625 L 32.46875 39.160156 L 32.226562 39.355469 L 31.984375 39.210938 L 31.640625 38.820312 L 31.398438 38.523438 L 31.347656 38.328125 L 31.101562 38.234375 L 30.078125 37.207031 L 29.734375 36.816406 L 28.859375 35.9375 L 28.515625 35.546875 L 28.078125 35.109375 L 27.734375 34.71875 L 27.050781 34.03125 L 26.710938 33.640625 L 26.023438 32.960938 L 25.683594 32.570312 L 24.851562 31.738281 L 24.511719 31.347656 L 23.828125 30.664062 L 23.484375 30.273438 L 22.65625 29.445312 L 22.3125 29.054688 L 21.921875 28.664062 L 21.582031 28.273438 L 20.554688 27.246094 L 20.214844 26.855469 L 19.679688 26.320312 L 19.335938 25.929688 L 18.75 25.34375 L 18.40625 24.953125 L 17.921875 24.460938 L 17.578125 24.070312 L 17.039062 23.535156 L 16.699219 23.144531 L 15.1875 21.632812 L 14.84375 21.242188 L 13.964844 20.359375 L 13.625 19.875 L 13.234375 19.09375 L 13.039062 18.601562 L 12.9375 18.210938 L 12.988281 17.96875 L 13.429688 17.820312 L 15.382812 17.335938 Z M 15.773438 17.285156 "/>
<path style=" stroke:none;fill-rule:nonzero;fill:rgb(41.176471%,30.196078%,58.431373%);fill-opacity:1;" d="M 61.28125 44.140625 L 61.523438 44.1875 L 61.816406 44.53125 L 62.257812 45.265625 L 62.9375 46.484375 L 63.429688 47.21875 L 63.574219 47.363281 L 63.183594 46.484375 L 62.9375 45.945312 L 62.988281 45.800781 L 63.476562 46.632812 L 63.964844 47.507812 L 64.40625 48.289062 L 65.085938 49.5625 L 65.28125 49.953125 L 65.28125 50.097656 L 63.234375 50.390625 L 62.402344 50.539062 L 62.207031 50.734375 L 61.328125 52.636719 L 60.546875 54.394531 L 60.15625 55.175781 L 59.328125 55.617188 L 58.203125 56.101562 L 56.25 56.984375 L 55.8125 57.128906 L 54.835938 57.179688 L 51.609375 57.617188 L 50.878906 57.714844 L 50.292969 57.714844 L 49.316406 57.324219 L 48.242188 56.835938 L 47.507812 56.492188 L 46.777344 56.25 L 46.53125 56.203125 L 45.507812 56.203125 L 44.238281 56.445312 L 42.429688 56.835938 L 41.554688 56.984375 L 41.113281 56.984375 L 40.476562 56.738281 L 39.746094 56.296875 L 39.648438 56.203125 L 39.648438 55.761719 L 39.890625 54.6875 L 40.085938 54.539062 L 41.015625 54.296875 L 42.234375 53.710938 L 42.625 53.515625 L 43.066406 53.222656 L 43.554688 52.882812 L 44.09375 52.34375 L 44.484375 51.804688 L 44.726562 51.515625 L 45.070312 51.269531 L 45.265625 51.21875 L 45.996094 51.21875 L 48.390625 51.464844 L 49.023438 51.515625 L 50.539062 51.5625 L 50.976562 51.90625 L 51.515625 52.390625 L 51.710938 52.195312 L 51.804688 52.148438 L 51.710938 51.90625 L 51.515625 51.515625 L 51.515625 51.320312 L 51.710938 51.414062 L 52.734375 52.441406 L 53.078125 52.832031 L 53.613281 53.367188 L 54.296875 54.148438 L 54.25 54.34375 L 54.054688 54.539062 L 53.808594 54.492188 L 53.417969 54.101562 L 53.027344 53.757812 L 52.390625 53.222656 L 52.296875 53.171875 L 53.367188 54.25 L 53.757812 54.589844 L 53.859375 54.6875 L 54.101562 54.640625 L 54.445312 54.296875 L 54.394531 54.054688 L 53.808594 53.417969 L 53.46875 53.027344 L 53.027344 52.539062 L 52.492188 51.953125 L 51.855469 51.320312 L 51.804688 51.171875 L 52.734375 50.734375 L 53.367188 50.539062 L 54.054688 50.539062 L 54.835938 50.734375 L 56.25 51.269531 L 57.273438 51.5625 L 57.765625 51.660156 L 58.203125 51.660156 L 58.59375 51.464844 L 58.789062 51.269531 L 58.835938 51.125 L 58.054688 50.929688 L 55.664062 50.148438 L 54.785156 49.902344 L 54.785156 49.757812 L 55.273438 49.070312 L 55.761719 48.484375 L 56.152344 47.804688 L 56.882812 46.386719 L 57.324219 46.09375 L 58.691406 45.359375 L 59.617188 44.875 L 60.546875 44.433594 Z M 61.28125 44.140625 "/>
<path style=" stroke:none;fill-rule:nonzero;fill:rgb(57.254902%,60%,78.431373%);fill-opacity:1;" d="M 58.9375 58.398438 L 59.179688 58.445312 L 59.8125 59.617188 L 60.253906 60.351562 L 60.59375 61.035156 L 60.789062 61.476562 L 60.695312 61.914062 L 61.132812 61.671875 L 61.671875 61.671875 L 62.648438 61.914062 L 63.039062 61.960938 L 64.40625 61.960938 L 65.429688 61.71875 L 66.015625 61.523438 L 66.601562 61.425781 L 66.992188 61.28125 L 67.726562 61.28125 L 68.210938 61.328125 L 68.3125 61.425781 L 68.015625 61.621094 L 67.773438 61.816406 L 67.429688 61.914062 L 64.304688 62.402344 L 62.597656 62.597656 L 62.15625 62.648438 L 62.15625 62.742188 L 63.183594 62.695312 L 65.625 62.351562 L 67.140625 62.109375 L 67.96875 61.914062 L 68.015625 61.71875 L 68.457031 61.425781 L 69.09375 61.425781 L 68.992188 61.621094 L 68.507812 62.109375 L 67.96875 62.351562 L 67.1875 62.453125 L 65.382812 62.695312 L 62.890625 62.988281 L 61.71875 62.988281 L 60.789062 62.890625 L 60.5 62.84375 L 60.9375 62.988281 L 60.984375 63.085938 L 60.546875 63.625 L 59.960938 64.304688 L 59.523438 64.84375 L 58.835938 65.527344 L 58.445312 65.722656 L 56.984375 66.0625 L 56.152344 66.210938 L 54.785156 66.359375 L 53.859375 66.601562 L 53.027344 66.945312 L 51.953125 67.53125 L 51.21875 68.015625 L 50.632812 68.554688 L 50.195312 69.09375 L 49.804688 69.578125 L 49.367188 70.070312 L 48.828125 70.410156 L 47.609375 70.851562 L 46.582031 71.191406 L 46.289062 71.4375 L 45.898438 72.21875 L 45.117188 73.875 L 44.289062 75.632812 L 43.359375 77.539062 L 42.773438 78.757812 L 41.992188 80.371094 L 41.699219 80.761719 L 41.40625 81.007812 L 41.210938 80.90625 L 41.257812 80.273438 L 41.894531 76.414062 L 42.234375 74.265625 L 42.53125 72.507812 L 42.726562 71.242188 L 42.675781 70.851562 L 42.480469 70.554688 L 41.796875 69.875 L 41.257812 69.433594 L 40.578125 68.847656 L 40.332031 68.554688 L 40.332031 67.773438 L 40.429688 66.75 L 40.625 66.359375 L 40.867188 66.210938 L 41.0625 66.164062 L 41.699219 66.210938 L 42.820312 66.359375 L 44.679688 66.699219 L 49.21875 66.699219 L 49.511719 66.554688 L 49.707031 66.257812 L 50 66.015625 L 51.609375 65.476562 L 52.6875 65.234375 L 54.445312 64.941406 L 55.175781 64.746094 L 55.957031 64.453125 L 56.445312 64.257812 L 56.835938 63.964844 L 57.324219 63.429688 L 57.617188 62.988281 L 58.25 62.351562 L 58.640625 62.011719 L 58.886719 61.765625 L 59.082031 61.816406 L 59.523438 62.546875 L 59.617188 62.597656 L 59.226562 61.914062 L 59.132812 61.765625 L 59.082031 61.375 L 58.59375 60.59375 L 58.054688 59.523438 L 57.765625 58.984375 L 57.765625 58.835938 Z M 58.9375 58.398438 "/>
<path style=" stroke:none;fill-rule:nonzero;fill:rgb(34.509804%,35.294118%,64.313725%);fill-opacity:1;" d="M 45.359375 56.835938 L 46.289062 56.835938 L 46.921875 57.03125 L 47.703125 57.421875 L 48.925781 58.007812 L 49.804688 58.351562 L 50.34375 58.351562 L 50.632812 58.9375 L 51.074219 59.960938 L 51.90625 61.816406 L 52.148438 62.453125 L 52.148438 62.792969 L 51.804688 63.378906 L 51.171875 64.257812 L 50.683594 64.992188 L 50.242188 65.527344 L 49.851562 65.96875 L 49.367188 66.359375 L 49.121094 66.503906 L 48.78125 66.210938 L 48.289062 65.578125 L 47.558594 64.304688 L 47.070312 63.476562 L 46.4375 62.402344 L 46.289062 62.109375 L 46.875 61.179688 L 47.851562 59.71875 L 48.585938 58.546875 L 48.730469 58.300781 L 48.730469 58.203125 L 48.390625 58.742188 L 47.898438 59.421875 L 46.335938 61.765625 L 45.945312 62.304688 L 45.3125 62.304688 L 44.1875 62.0625 L 42.578125 61.476562 L 42.429688 61.28125 L 42.089844 59.71875 L 41.648438 58.300781 L 41.554688 57.8125 L 42.140625 57.664062 L 43.554688 57.324219 L 45.117188 56.882812 Z M 45.359375 56.835938 "/>
<path style=" stroke:none;fill-rule:nonzero;fill:rgb(41.568627%,30.196078%,58.823529%);fill-opacity:1;" d="M 72.609375 54.785156 L 73.046875 54.882812 L 74.367188 55.515625 L 75.734375 56.152344 L 78.125 57.324219 L 78.664062 57.617188 L 79.539062 58.15625 L 80.03125 58.445312 L 80.03125 58.640625 L 78.613281 59.226562 L 77.296875 59.765625 L 76.171875 60.203125 L 75.046875 60.546875 L 73.875 60.789062 L 72.753906 60.9375 L 72.117188 60.984375 L 70.164062 60.984375 L 68.457031 60.839844 L 66.84375 60.59375 L 65.96875 60.398438 L 65.820312 60.351562 L 65.917969 60.15625 L 66.503906 59.617188 L 67.039062 59.179688 L 67.53125 58.742188 L 68.210938 58.203125 L 68.796875 57.714844 L 69.484375 57.179688 L 69.96875 56.789062 L 70.605469 56.296875 L 71.191406 55.859375 L 71.972656 55.226562 Z M 72.609375 54.785156 "/>
<path style=" stroke:none;fill-rule:nonzero;fill:rgb(41.176471%,30.196078%,58.823529%);fill-opacity:1;" d="M 38.671875 38.820312 L 38.914062 38.867188 L 39.992188 39.40625 L 41.210938 39.796875 L 42.234375 39.992188 L 43.164062 40.136719 L 43.40625 40.28125 L 43.507812 40.578125 L 43.554688 41.015625 L 43.554688 42.089844 L 43.3125 43.359375 L 42.921875 44.824219 L 42.675781 45.3125 L 42.335938 45.703125 L 41.945312 46.046875 L 41.601562 46.386719 L 41.0625 46.828125 L 40.671875 47.21875 L 40.1875 47.609375 L 39.992188 47.558594 L 39.796875 47.3125 L 39.40625 46.972656 L 38.671875 46.242188 L 38.328125 45.851562 L 37.890625 45.410156 L 37.546875 45.019531 L 37.0625 44.53125 L 36.71875 44.140625 L 36.132812 43.554688 L 35.9375 43.261719 L 36.476562 42.820312 L 36.816406 42.480469 L 36.867188 42.382812 L 37.011719 42.382812 L 37.011719 42.285156 L 37.402344 41.945312 L 37.9375 41.308594 L 38.28125 40.625 L 38.476562 39.890625 L 38.625 38.914062 Z M 38.671875 38.820312 "/>
<path style=" stroke:none;fill-rule:nonzero;fill:rgb(31.764706%,50.588235%,44.313725%);fill-opacity:1;" d="M 40.28125 69.433594 L 40.527344 69.53125 L 40.96875 69.96875 L 41.503906 70.410156 L 41.945312 70.851562 L 42.140625 71.09375 L 42.140625 71.972656 L 41.308594 76.953125 L 40.773438 80.125 L 40.476562 81.347656 L 40.28125 81.6875 L 39.890625 81.984375 L 39.453125 82.128906 L 37.988281 82.375 L 36.765625 82.664062 L 36.476562 82.617188 L 36.425781 82.570312 L 36.425781 82.226562 L 36.71875 81.101562 L 37.0625 79.980469 L 37.453125 78.664062 L 37.792969 77.441406 L 38.28125 75.78125 L 38.574219 74.757812 L 39.210938 72.558594 L 39.992188 70.164062 L 40.234375 69.484375 Z M 40.28125 69.433594 "/>
<path style=" stroke:none;fill-rule:nonzero;fill:rgb(41.568627%,30.196078%,58.823529%);fill-opacity:1;" d="M 65.1875 52.296875 L 65.625 52.34375 L 66.699219 52.734375 L 67.578125 53.078125 L 69.042969 53.613281 L 70.214844 54.054688 L 71.582031 54.539062 L 71.921875 54.6875 L 71.921875 54.785156 L 71.386719 55.226562 L 70.65625 55.8125 L 69.289062 56.882812 L 68.898438 57.128906 L 68.554688 57.128906 L 66.554688 56.398438 L 65.039062 55.859375 L 62.109375 54.785156 L 61.914062 54.6875 L 61.960938 54.492188 L 62.402344 53.90625 L 62.84375 53.417969 L 63.328125 53.027344 L 64.109375 52.636719 L 64.941406 52.34375 Z M 65.1875 52.296875 "/>
<path style=" stroke:none;fill-rule:nonzero;fill:rgb(44.313725%,69.411765%,36.470588%);fill-opacity:1;" d="M 34.8125 35.15625 L 35.007812 35.253906 L 35.839844 36.035156 L 35.839844 36.375 L 35.5 37.890625 L 35.449219 38.28125 L 35.695312 37.648438 L 35.890625 36.71875 L 35.984375 36.230469 L 36.085938 36.230469 L 36.960938 37.109375 L 37.351562 37.453125 L 37.695312 37.742188 L 37.695312 37.84375 L 37.890625 37.9375 L 38.378906 38.429688 L 38.476562 38.574219 L 38.476562 39.160156 L 38.328125 39.890625 L 38.039062 40.722656 L 37.648438 41.40625 L 37.109375 42.039062 L 36.816406 42.53125 L 36.328125 43.015625 L 36.035156 43.261719 L 35.839844 43.210938 L 35.058594 42.382812 L 34.179688 41.503906 L 33.835938 41.113281 L 33.398438 40.671875 L 33.054688 40.28125 L 32.324219 39.550781 L 32.375 39.355469 L 32.765625 38.964844 L 33.496094 38.429688 L 33.9375 38.132812 L 34.375 37.648438 L 34.71875 37.109375 L 34.765625 36.960938 Z M 34.8125 35.15625 "/>
<path style=" stroke:none;fill-rule:nonzero;fill:rgb(34.509804%,35.294118%,64.313725%);fill-opacity:1;" d="M 42.53125 61.867188 L 42.96875 61.867188 L 44.53125 62.257812 L 45.898438 62.453125 L 45.851562 62.695312 L 45.460938 63.476562 L 45.070312 64.160156 L 44.726562 64.695312 L 44.921875 64.453125 L 45.898438 62.988281 L 46.140625 62.597656 L 46.335938 62.695312 L 47.3125 64.257812 L 47.851562 65.136719 L 48.242188 65.773438 L 48.828125 66.40625 L 48.875 66.554688 L 48.484375 66.601562 L 46.09375 66.648438 L 45.507812 66.699219 L 44.921875 66.699219 L 44.1875 66.554688 L 43.898438 66.453125 L 43.359375 66.40625 L 41.601562 66.113281 L 41.359375 66.015625 L 41.308594 65.820312 L 41.648438 64.550781 L 41.945312 63.476562 L 42.234375 62.5 L 42.480469 61.914062 Z M 42.53125 61.867188 "/>
<path style=" stroke:none;fill-rule:nonzero;fill:rgb(34.509804%,35.294118%,64.313725%);fill-opacity:1;" d="M 56.203125 57.8125 L 56.492188 57.8125 L 56.984375 58.105469 L 57.273438 58.25 L 57.324219 58.546875 L 57.8125 59.328125 L 58.398438 60.449219 L 58.835938 61.230469 L 58.789062 61.476562 L 58.445312 61.914062 L 58.054688 62.304688 L 57.519531 62.988281 L 57.128906 63.523438 L 56.640625 64.015625 L 56.347656 64.160156 L 55.957031 64.109375 L 55.46875 63.820312 L 54.929688 63.378906 L 54.539062 63.039062 L 54.003906 62.597656 L 53.613281 62.257812 L 53.515625 62.0625 L 53.5625 61.765625 L 53.808594 61.179688 L 54.394531 59.71875 L 55.03125 58.203125 L 55.125 58.105469 L 56.007812 57.859375 Z M 56.203125 57.8125 "/>
<path style=" stroke:none;fill-rule:nonzero;fill:rgb(34.509804%,35.294118%,64.313725%);fill-opacity:1;" d="M 69.484375 41.015625 L 69.679688 41.113281 L 70.164062 41.648438 L 70.703125 42.480469 L 71.289062 43.601562 L 71.679688 44.484375 L 71.972656 45.214844 L 72.265625 46.09375 L 72.265625 46.191406 L 71.777344 46.191406 L 70.800781 46.09375 L 70.703125 46.046875 L 69.773438 45.898438 L 68.75 45.65625 L 66.113281 44.921875 L 65.867188 44.824219 L 65.867188 44.726562 L 67.382812 44.042969 L 68.3125 43.652344 L 68.703125 43.359375 L 68.992188 42.921875 L 69.289062 42.140625 L 69.382812 41.699219 L 69.433594 41.164062 Z M 69.484375 41.015625 "/>
<path style=" stroke:none;fill-rule:nonzero;fill:rgb(31.764706%,50.588235%,44.313725%);fill-opacity:1;" d="M 58.9375 58.398438 L 59.179688 58.445312 L 59.8125 59.617188 L 60.253906 60.351562 L 60.59375 61.035156 L 60.789062 61.476562 L 60.695312 61.914062 L 61.132812 61.671875 L 61.671875 61.671875 L 62.648438 61.914062 L 63.039062 61.960938 L 64.40625 61.960938 L 65.429688 61.71875 L 66.015625 61.523438 L 66.601562 61.425781 L 66.992188 61.28125 L 67.726562 61.28125 L 68.210938 61.328125 L 68.3125 61.425781 L 68.015625 61.621094 L 67.773438 61.816406 L 67.429688 61.914062 L 64.304688 62.402344 L 62.597656 62.597656 L 62.15625 62.648438 L 62.15625 62.742188 L 63.183594 62.695312 L 65.625 62.351562 L 67.140625 62.109375 L 67.96875 61.914062 L 68.015625 61.71875 L 68.457031 61.425781 L 69.09375 61.425781 L 68.992188 61.621094 L 68.507812 62.109375 L 67.96875 62.351562 L 67.1875 62.453125 L 65.382812 62.695312 L 62.890625 62.988281 L 61.71875 62.988281 L 60.789062 62.890625 L 60.5 62.84375 L 60.9375 62.988281 L 60.9375 63.039062 L 60.546875 62.988281 L 60.109375 62.84375 L 59.617188 62.792969 L 59.375 62.546875 L 59.132812 62.109375 L 59.179688 62.011719 L 59.570312 62.597656 L 59.617188 62.597656 L 59.226562 61.914062 L 59.132812 61.765625 L 59.082031 61.375 L 58.59375 60.59375 L 58.054688 59.523438 L 57.765625 58.984375 L 57.765625 58.835938 Z M 58.9375 58.398438 "/>
<path style=" stroke:none;fill-rule:nonzero;fill:rgb(34.509804%,35.294118%,64.313725%);fill-opacity:1;" d="M 54.445312 57.765625 L 54.785156 57.8125 L 54.929688 57.960938 L 54.835938 58.445312 L 54.003906 60.5 L 53.613281 61.425781 L 53.417969 61.71875 L 52.246094 62.011719 L 52.101562 62.011719 L 51.5625 60.984375 L 51.023438 59.617188 L 50.585938 58.445312 L 50.539062 58.25 L 52.050781 58.054688 L 53.953125 57.8125 Z M 54.445312 57.765625 "/>
<path style=" stroke:none;fill-rule:nonzero;fill:rgb(34.509804%,35.294118%,64.313725%);fill-opacity:1;" d="M 46.140625 62.597656 L 46.335938 62.695312 L 47.3125 64.257812 L 47.851562 65.136719 L 48.242188 65.773438 L 48.828125 66.40625 L 48.875 66.554688 L 48.484375 66.601562 L 46.09375 66.648438 L 45.507812 66.699219 L 44.921875 66.699219 L 44.1875 66.554688 L 44.042969 66.40625 L 44.1875 65.820312 L 44.433594 65.332031 L 44.578125 64.992188 L 44.921875 64.453125 L 45.898438 62.988281 Z M 46.140625 62.597656 "/>
<path style=" stroke:none;fill-rule:nonzero;fill:rgb(31.764706%,50.588235%,44.313725%);fill-opacity:1;" d="M 62.207031 56.542969 L 62.988281 56.542969 L 65.625 57.078125 L 67.089844 57.324219 L 67.921875 57.519531 L 67.96875 57.617188 L 67.429688 58.054688 L 66.796875 58.59375 L 66.554688 58.742188 L 66.0625 58.691406 L 61.914062 57.765625 L 60.789062 57.570312 L 60.351562 57.664062 L 59.082031 58.203125 L 57.765625 58.789062 L 57.570312 58.691406 L 57.519531 58.445312 L 58.25 58.007812 L 58.789062 57.664062 L 59.472656 57.519531 L 60.5 57.179688 L 61.71875 56.6875 Z M 62.207031 56.542969 "/>
<path style=" stroke:none;fill-rule:nonzero;fill:rgb(98.823529%,98.823529%,99.215686%);fill-opacity:1;" d="M 53.757812 47.3125 L 54.296875 47.3125 L 54.296875 47.414062 L 53.757812 47.851562 L 53.171875 48.390625 L 52.636719 48.828125 L 52 49.367188 L 51.464844 50 L 50.976562 50.292969 L 50.683594 50.390625 L 50.292969 50.4375 L 48.730469 50.539062 L 47.703125 50.632812 L 47.558594 50.683594 L 47.167969 50.683594 L 47.167969 50.585938 L 47.558594 50.292969 L 48.046875 49.851562 L 48.585938 49.316406 L 48.925781 48.925781 L 49.511719 48.4375 L 49.953125 48.242188 L 51.320312 47.898438 L 52.050781 47.703125 L 53.273438 47.460938 L 53.320312 47.414062 Z M 53.757812 47.3125 "/>
<path style=" stroke:none;fill-rule:nonzero;fill:rgb(34.509804%,35.294118%,64.313725%);fill-opacity:1;" d="M 53.027344 61.914062 L 53.273438 61.914062 L 53.515625 62.304688 L 54.054688 62.84375 L 54.589844 63.28125 L 55.03125 63.671875 L 55.46875 64.015625 L 55.761719 64.304688 L 55.664062 64.5 L 54.929688 64.746094 L 53.757812 64.992188 L 52.101562 65.28125 L 50.4375 65.773438 L 50.148438 65.867188 L 50.242188 65.671875 L 50.734375 65.085938 L 51.21875 64.40625 L 51.710938 63.769531 L 52.390625 62.84375 L 52.492188 62.648438 L 52.441406 62.402344 L 52.296875 62.257812 L 52.34375 62.109375 Z M 53.027344 61.914062 "/>
<path style=" stroke:none;fill-rule:nonzero;fill:rgb(54.901961%,57.647059%,75.686275%);fill-opacity:1;" d="M 55.078125 66.648438 L 56.101562 66.648438 L 56.054688 66.796875 L 55.03125 67.480469 L 54.199219 67.921875 L 53.417969 68.3125 L 52.6875 68.75 L 51.90625 69.335938 L 51.414062 69.773438 L 50.878906 70.214844 L 50.292969 70.65625 L 49.5625 71.09375 L 48.632812 71.53125 L 47.3125 71.972656 L 46.582031 72.117188 L 46.53125 71.921875 L 46.632812 71.582031 L 46.921875 71.4375 L 48.242188 71.046875 L 49.171875 70.605469 L 49.65625 70.265625 L 50.148438 69.824219 L 50.585938 69.335938 L 51.074219 68.601562 L 51.609375 68.210938 L 52.929688 67.429688 L 53.367188 67.140625 L 53.859375 66.894531 L 54.640625 66.699219 Z M 55.078125 66.648438 "/>
<path style=" stroke:none;fill-rule:nonzero;fill:rgb(41.568627%,30.196078%,58.823529%);fill-opacity:1;" d="M 65.28125 50.195312 L 65.332031 50.195312 L 65.332031 50.976562 L 65.234375 51.609375 L 65.039062 51.757812 L 63.523438 52.296875 L 62.84375 52.636719 L 62.351562 53.078125 L 61.71875 53.710938 L 61.179688 54.003906 L 61.035156 54.003906 L 61.085938 53.757812 L 61.71875 52.296875 L 62.304688 50.929688 L 62.5 50.632812 L 63.574219 50.4375 Z M 65.28125 50.195312 "/>
<path style=" stroke:none;fill-rule:nonzero;fill:rgb(41.568627%,30.196078%,58.823529%);fill-opacity:1;" d="M 38.964844 54.003906 L 39.109375 54.003906 L 39.0625 54.640625 L 38.769531 55.90625 L 38.625 56.152344 L 38.132812 56.347656 L 36.914062 56.640625 L 36.132812 56.738281 L 35.304688 56.738281 L 34.914062 56.640625 L 35.007812 56.398438 L 37.0625 55.125 L 38.429688 54.296875 Z M 38.964844 54.003906 "/>
<path style=" stroke:none;fill-rule:nonzero;fill:rgb(41.568627%,30.196078%,58.823529%);fill-opacity:1;" d="M 41.015625 51.5625 L 41.210938 51.609375 L 41.601562 51.855469 L 41.894531 52.195312 L 42.234375 52.636719 L 42.234375 52.734375 L 42.335938 52.734375 L 42.675781 53.222656 L 42.578125 53.417969 L 42.089844 53.710938 L 41.0625 54.199219 L 40.28125 54.445312 L 40.039062 54.445312 L 39.992188 54.394531 L 40.039062 53.859375 L 40.234375 53.171875 L 40.917969 51.660156 Z M 41.015625 51.5625 "/>
<path style=" stroke:none;fill-rule:nonzero;fill:rgb(41.176471%,30.196078%,58.431373%);fill-opacity:1;" d="M 68.652344 49.851562 L 70.164062 49.851562 L 70.164062 49.953125 L 68.847656 50.4375 L 66.210938 51.367188 L 65.476562 51.609375 L 65.382812 51.609375 L 65.382812 51.125 L 65.476562 50.046875 L 66.796875 49.953125 Z M 68.652344 49.851562 "/>
<path style=" stroke:none;fill-rule:nonzero;fill:rgb(36.470588%,38.823529%,54.117647%);fill-opacity:1;" d="M 41.0625 66.164062 L 41.699219 66.210938 L 42.820312 66.359375 L 44.679688 66.699219 L 48.875 66.699219 L 48.875 66.75 L 46.386719 66.796875 L 45.800781 66.84375 L 44.679688 66.84375 L 42.871094 66.503906 L 41.75 66.359375 L 40.96875 66.359375 L 40.671875 66.554688 L 40.578125 66.796875 L 40.476562 67.96875 L 40.476562 68.457031 L 40.671875 68.75 L 41.210938 69.238281 L 41.75 69.679688 L 42.578125 70.460938 L 42.773438 70.703125 L 42.871094 70.996094 L 42.820312 71.632812 L 42.429688 74.121094 L 42.140625 75.828125 L 41.554688 79.445312 L 41.40625 80.320312 L 41.359375 80.8125 L 41.699219 80.566406 L 42.285156 79.445312 L 43.066406 77.832031 L 43.945312 76.074219 L 44.484375 74.953125 L 44.875 74.171875 L 44.921875 74.316406 L 44.042969 76.125 L 43.507812 77.246094 L 42.675781 78.953125 L 41.992188 80.371094 L 41.699219 80.761719 L 41.40625 81.007812 L 41.210938 80.90625 L 41.257812 80.273438 L 41.894531 76.414062 L 42.234375 74.265625 L 42.53125 72.507812 L 42.726562 71.242188 L 42.675781 70.851562 L 42.480469 70.554688 L 41.796875 69.875 L 41.257812 69.433594 L 40.578125 68.847656 L 40.332031 68.554688 L 40.332031 67.773438 L 40.429688 66.75 L 40.625 66.359375 L 40.867188 66.210938 Z M 41.0625 66.164062 "/>
<path style=" stroke:none;fill-rule:nonzero;fill:rgb(34.901961%,34.901961%,63.921569%);fill-opacity:1;" d="M 58.691406 56.542969 L 58.789062 56.542969 L 58.9375 57.03125 L 59.132812 57.179688 L 59.8125 57.226562 L 59.667969 57.324219 L 59.328125 57.421875 L 58.886719 57.46875 L 58.496094 57.714844 L 57.859375 58.105469 L 57.617188 58.203125 L 57.273438 58.15625 L 56.640625 57.8125 L 56.835938 57.617188 L 57.765625 57.128906 L 58.546875 56.640625 Z M 58.691406 56.542969 "/>
<path style=" stroke:none;fill-rule:nonzero;fill:rgb(42.745098%,50.196078%,59.607843%);fill-opacity:1;" d="M 40.136719 64.84375 L 40.136719 64.992188 L 39.648438 65.476562 L 39.5 65.820312 L 39.304688 67.335938 L 39.109375 68.507812 L 38.820312 69.53125 L 38.132812 71.726562 L 37.109375 75 L 36.132812 78.027344 L 35.253906 80.761719 L 34.960938 81.789062 L 34.960938 82.664062 L 35.058594 83.203125 L 34.960938 83.105469 L 34.863281 82.765625 L 34.863281 81.6875 L 35.15625 80.664062 L 36.132812 77.636719 L 36.570312 76.21875 L 37.0625 74.707031 L 38.039062 71.632812 L 38.71875 69.433594 L 39.015625 68.359375 L 39.160156 67.429688 L 39.355469 65.917969 L 39.550781 65.429688 Z M 40.136719 64.84375 "/>
<path style=" stroke:none;fill-rule:nonzero;fill:rgb(36.862745%,36.862745%,56.078431%);fill-opacity:1;" d="M 41.0625 66.164062 L 41.699219 66.210938 L 42.820312 66.359375 L 44.679688 66.699219 L 48.875 66.699219 L 48.875 66.75 L 46.386719 66.796875 L 45.800781 66.84375 L 44.679688 66.84375 L 42.871094 66.503906 L 41.75 66.359375 L 40.96875 66.359375 L 40.671875 66.554688 L 40.578125 66.796875 L 40.476562 67.96875 L 40.476562 68.457031 L 40.671875 68.75 L 41.210938 69.238281 L 41.75 69.679688 L 42.578125 70.460938 L 42.773438 70.703125 L 42.871094 70.996094 L 42.820312 71.632812 L 42.773438 71.921875 L 42.726562 71.921875 L 42.726562 70.996094 L 42.53125 70.605469 L 41.796875 69.875 L 41.257812 69.433594 L 40.578125 68.847656 L 40.332031 68.554688 L 40.332031 67.773438 L 40.429688 66.75 L 40.625 66.359375 L 40.867188 66.210938 Z M 41.0625 66.164062 "/>
<path style=" stroke:none;fill-rule:nonzero;fill:rgb(35.686275%,34.509804%,63.529412%);fill-opacity:1;" d="M 68.796875 42.382812 L 68.847656 42.53125 L 68.601562 42.96875 L 68.210938 43.359375 L 67.234375 43.796875 L 65.96875 44.335938 L 65.722656 44.289062 L 65.28125 43.945312 L 65.28125 43.898438 L 65.917969 43.898438 L 65.917969 43.796875 L 66.699219 43.601562 L 67.335938 43.359375 L 67.871094 43.066406 L 68.703125 42.480469 Z M 68.796875 42.382812 "/>
<path style=" stroke:none;fill-rule:nonzero;fill:rgb(41.568627%,30.196078%,58.823529%);fill-opacity:1;" d="M 74.265625 54.148438 L 74.757812 54.199219 L 75.046875 54.394531 L 74.851562 54.734375 L 74.265625 55.226562 L 73.828125 55.078125 L 73.484375 54.882812 L 73.535156 54.734375 L 74.070312 54.296875 Z M 74.265625 54.148438 "/>
<path style=" stroke:none;fill-rule:nonzero;fill:rgb(41.568627%,30.196078%,58.823529%);fill-opacity:1;" d="M 40.039062 57.570312 L 40.429688 57.617188 L 40.722656 57.8125 L 40.917969 58.054688 L 41.257812 58.789062 L 41.308594 59.03125 L 41.0625 59.082031 L 40.671875 58.742188 L 40.382812 58.300781 L 40.085938 57.765625 Z M 40.039062 57.570312 "/>
<path style=" stroke:none;fill-rule:nonzero;fill:rgb(98.431373%,98.823529%,98.823529%);fill-opacity:1;" d="M 72.558594 45.070312 L 72.804688 45.070312 L 73.289062 45.265625 L 74.023438 45.507812 L 73.976562 45.605469 L 73.390625 45.851562 L 73 46.046875 L 72.851562 46.046875 L 72.558594 45.164062 Z M 72.558594 45.070312 "/>
<path style=" stroke:none;fill-rule:nonzero;fill:rgb(43.137255%,53.333333%,59.607843%);fill-opacity:1;" d="M 32.570312 56.203125 L 32.664062 56.25 L 32.519531 56.492188 L 32.519531 57.03125 L 32.617188 57.226562 L 34.523438 57.421875 L 36.570312 57.421875 L 37.304688 57.375 L 38.234375 57.375 L 38.378906 57.617188 L 38.328125 57.714844 L 38.183594 57.519531 L 37.304688 57.519531 L 36.523438 57.570312 L 34.667969 57.570312 L 33.007812 57.421875 L 32.519531 57.324219 L 32.375 56.933594 L 32.375 56.445312 Z M 32.570312 56.203125 "/>
<path style=" stroke:none;fill-rule:nonzero;fill:rgb(37.254902%,36.470588%,56.078431%);fill-opacity:1;" d="M 42.675781 71.632812 L 42.726562 71.632812 L 42.726562 72.21875 L 42.429688 74.121094 L 42.140625 75.828125 L 41.992188 76.710938 L 41.894531 77 L 41.84375 77 L 41.894531 76.414062 L 42.234375 74.265625 L 42.53125 72.507812 Z M 42.675781 71.632812 "/>
<path style=" stroke:none;fill-rule:nonzero;fill:rgb(36.078431%,38.823529%,54.901961%);fill-opacity:1;" d="M 44.875 74.171875 L 44.921875 74.316406 L 44.042969 76.125 L 43.507812 77.246094 L 42.675781 78.953125 L 42.53125 79.101562 L 42.480469 79.003906 L 43.945312 76.074219 L 44.484375 74.953125 Z M 44.875 74.171875 "/>
<path style=" stroke:none;fill-rule:nonzero;fill:rgb(11.764706%,11.372549%,11.764706%);fill-opacity:1;" d="M 58.203125 59.277344 L 58.398438 59.375 L 58.835938 60.304688 L 59.375 61.085938 L 59.765625 61.71875 L 59.960938 62.109375 L 59.914062 62.257812 L 59.71875 62.0625 L 59.226562 61.179688 L 58.886719 60.695312 L 58.546875 60.109375 L 58.300781 59.570312 Z M 58.203125 59.277344 "/>
<path style=" stroke:none;fill-rule:nonzero;fill:rgb(35.686275%,40.392157%,53.72549%);fill-opacity:1;" d="M 40.382812 68.015625 L 40.429688 68.015625 L 40.476562 68.457031 L 40.671875 68.75 L 41.210938 69.238281 L 41.75 69.679688 L 42.578125 70.460938 L 42.773438 70.703125 L 42.871094 70.996094 L 42.820312 71.632812 L 42.773438 71.921875 L 42.726562 71.921875 L 42.726562 70.996094 L 42.53125 70.605469 L 41.796875 69.875 L 41.257812 69.433594 L 40.578125 68.847656 L 40.332031 68.554688 L 40.332031 68.210938 Z M 40.382812 68.015625 "/>
<path style=" stroke:none;fill-rule:nonzero;fill:rgb(40.784314%,30.588235%,59.215686%);fill-opacity:1;" d="M 44.433594 65.136719 L 44.484375 65.332031 L 44.238281 65.820312 L 44.09375 66.40625 L 43.898438 66.453125 L 43.359375 66.40625 L 42.820312 66.308594 L 42.820312 66.257812 L 43.703125 66.164062 L 43.898438 66.0625 L 43.945312 66.113281 L 44.140625 65.578125 L 44.289062 65.28125 L 44.382812 65.28125 Z M 44.433594 65.136719 "/>
<path style=" stroke:none;fill-rule:nonzero;fill:rgb(41.176471%,30.196078%,58.823529%);fill-opacity:1;" d="M 68.796875 42.382812 L 68.847656 42.53125 L 68.601562 42.96875 L 68.210938 43.359375 L 68.015625 43.40625 L 68.066406 43.210938 L 67.773438 43.261719 L 67.53125 43.359375 L 67.53125 43.261719 L 68.3125 42.773438 Z M 68.796875 42.382812 "/>
<path style=" stroke:none;fill-rule:nonzero;fill:rgb(11.764706%,11.372549%,11.764706%);fill-opacity:1;" d="M 42.1875 66.210938 L 42.820312 66.257812 L 43.652344 66.40625 L 43.992188 66.40625 L 44.433594 66.554688 L 44.921875 66.648438 L 45.460938 66.699219 L 45.460938 66.75 L 44.679688 66.75 L 42.820312 66.40625 L 42.1875 66.308594 Z M 42.1875 66.210938 "/>
<path style=" stroke:none;fill-rule:nonzero;fill:rgb(37.254902%,36.862745%,56.078431%);fill-opacity:1;" d="M 42.53125 79.054688 L 42.578125 79.148438 L 41.992188 80.371094 L 41.699219 80.761719 L 41.40625 81.007812 L 41.210938 80.90625 L 41.210938 80.566406 L 41.308594 80.566406 L 41.308594 80.8125 L 41.648438 80.617188 L 41.945312 80.125 L 42.429688 79.148438 Z M 42.53125 79.054688 "/>
<path style=" stroke:none;fill-rule:nonzero;fill:rgb(40.392157%,53.333333%,52.941176%);fill-opacity:1;" d="M 64.890625 56.6875 L 65.28125 56.6875 L 66.453125 56.882812 L 66.453125 57.078125 L 65.773438 56.984375 L 65.039062 56.835938 Z M 64.890625 56.6875 "/>
<path style=" stroke:none;fill-rule:nonzero;fill:rgb(38.039216%,48.235294%,52.941176%);fill-opacity:1;" d="M 53.808594 53.710938 L 54.003906 53.808594 L 54.296875 54.148438 L 54.25 54.34375 L 54.054688 54.539062 L 53.808594 54.492188 L 53.664062 54.34375 L 53.710938 54.25 L 53.953125 54.296875 L 53.90625 54.101562 Z M 53.808594 53.710938 "/>
<path style=" stroke:none;fill-rule:nonzero;fill:rgb(11.764706%,11.372549%,11.764706%);fill-opacity:1;" d="M 54.148438 45.460938 L 55.421875 45.460938 L 55.320312 45.554688 L 54.640625 45.605469 L 53.078125 45.605469 L 53.078125 45.554688 L 53.320312 45.507812 Z M 54.148438 45.460938 "/>
<path style=" stroke:none;fill-rule:nonzero;fill:rgb(44.313725%,48.235294%,61.568627%);fill-opacity:1;" d="M 32.570312 56.203125 L 32.664062 56.25 L 32.519531 56.492188 L 32.519531 57.03125 L 32.617188 57.226562 L 34.082031 57.375 L 34.082031 57.421875 L 33.789062 57.46875 L 33.007812 57.421875 L 32.519531 57.324219 L 32.375 56.933594 L 32.375 56.445312 Z M 32.570312 56.203125 "/>
<path style=" stroke:none;fill-rule:nonzero;fill:rgb(11.764706%,11.372549%,11.764706%);fill-opacity:1;" d="M 34.765625 36.765625 L 34.8125 36.960938 L 34.617188 37.351562 L 34.132812 37.988281 L 33.691406 38.378906 L 33.445312 38.523438 L 33.351562 38.476562 L 34.082031 37.84375 L 34.523438 37.304688 Z M 34.765625 36.765625 "/>
<path style=" stroke:none;fill-rule:nonzero;fill:rgb(35.686275%,40%,53.72549%);fill-opacity:1;" d="M 41.945312 69.96875 L 42.1875 70.070312 L 42.726562 70.605469 L 42.871094 70.996094 L 42.820312 71.632812 L 42.773438 71.921875 L 42.726562 71.921875 L 42.726562 70.996094 L 42.53125 70.605469 L 41.945312 70.019531 Z M 41.945312 69.96875 "/>
<path style=" stroke:none;fill-rule:nonzero;fill:rgb(41.568627%,30.196078%,58.823529%);fill-opacity:1;" d="M 68.945312 45.65625 L 69.433594 45.703125 L 70.070312 45.800781 L 71.335938 46.046875 L 71.335938 46.09375 L 70.800781 46.09375 L 70.703125 46.046875 L 69.773438 45.898438 L 68.945312 45.703125 Z M 68.945312 45.65625 "/>
<path style=" stroke:none;fill-rule:nonzero;fill:rgb(11.764706%,11.372549%,11.764706%);fill-opacity:1;" d="M 63.769531 53.90625 L 64.0625 53.90625 L 64.015625 54.148438 L 63.671875 54.394531 L 63.429688 54.394531 L 63.625 54.003906 Z M 63.769531 53.90625 "/>
<path style=" stroke:none;fill-rule:nonzero;fill:rgb(43.921569%,47.45098%,60.784314%);fill-opacity:1;" d="M 37.304688 57.375 L 38.234375 57.375 L 38.378906 57.617188 L 38.328125 57.714844 L 38.183594 57.519531 L 36.816406 57.519531 L 36.570312 57.46875 L 36.570312 57.421875 Z M 37.304688 57.375 "/>
<path style=" stroke:none;fill-rule:nonzero;fill:rgb(11.764706%,11.372549%,11.764706%);fill-opacity:1;" d="M 41.503906 53.953125 L 41.601562 53.953125 L 41.554688 54.101562 L 40.867188 54.394531 L 40.476562 54.492188 L 40.28125 54.445312 L 40.382812 54.34375 L 41.308594 54.054688 Z M 41.503906 53.953125 "/>
<path style=" stroke:none;fill-rule:nonzero;fill:rgb(37.647059%,38.039216%,53.333333%);fill-opacity:1;" d="M 62.9375 45.800781 L 63.085938 45.945312 L 63.523438 46.726562 L 63.429688 46.921875 L 63.28125 46.679688 L 62.9375 45.945312 Z M 62.9375 45.800781 "/>
<path style=" stroke:none;fill-rule:nonzero;fill:rgb(43.137255%,48.627451%,59.607843%);fill-opacity:1;" d="M 37.453125 73.484375 L 37.546875 73.535156 L 37.402344 74.070312 L 37.0625 75.148438 L 37.011719 75.148438 L 37.0625 74.707031 Z M 37.453125 73.484375 "/>
<path style=" stroke:none;fill-rule:nonzero;fill:rgb(11.764706%,11.372549%,11.764706%);fill-opacity:1;" d="M 35.058594 39.015625 L 35.15625 39.0625 L 34.8125 39.453125 L 34.375 39.746094 L 34.082031 39.890625 L 33.984375 39.84375 L 34.863281 39.210938 Z M 35.058594 39.015625 "/>
<path style=" stroke:none;fill-rule:nonzero;fill:rgb(37.647059%,36.862745%,55.294118%);fill-opacity:1;" d="M 42.140625 75.34375 L 42.1875 75.488281 L 41.992188 76.710938 L 41.894531 77 L 41.84375 77 L 41.894531 76.414062 L 42.039062 75.488281 Z M 42.140625 75.34375 "/>
<path style=" stroke:none;fill-rule:nonzero;fill:rgb(37.254902%,27.45098%,52.54902%);fill-opacity:1;" d="M 44.433594 65.136719 L 44.484375 65.332031 L 44.09375 66.113281 L 43.992188 66.113281 L 44.042969 65.773438 L 44.289062 65.28125 L 44.382812 65.28125 Z M 44.433594 65.136719 "/>
<path style=" stroke:none;fill-rule:nonzero;fill:rgb(38.039216%,32.941176%,61.568627%);fill-opacity:1;" d="M 68.796875 42.382812 L 68.847656 42.53125 L 68.601562 42.96875 L 68.40625 43.015625 L 68.40625 42.726562 Z M 68.796875 42.382812 "/>
<path style=" stroke:none;fill-rule:nonzero;fill:rgb(36.078431%,40%,52.941176%);fill-opacity:1;" d="M 41.453125 79.492188 L 41.503906 79.492188 L 41.453125 80.078125 L 41.359375 80.8125 L 41.308594 80.8125 L 41.257812 80.273438 L 41.359375 79.640625 Z M 41.453125 79.492188 "/>
<path style=" stroke:none;fill-rule:nonzero;fill:rgb(37.647059%,36.078431%,56.470588%);fill-opacity:1;" d="M 42.675781 71.632812 L 42.726562 71.632812 L 42.726562 72.21875 L 42.625 72.898438 L 42.480469 73.046875 L 42.53125 72.507812 Z M 42.675781 71.632812 "/>
<path style=" stroke:none;fill-rule:nonzero;fill:rgb(34.509804%,41.176471%,54.117647%);fill-opacity:1;" d="M 40.382812 68.015625 L 40.429688 68.015625 L 40.476562 68.457031 L 40.671875 68.75 L 40.96875 68.992188 L 40.820312 69.042969 L 40.429688 68.703125 L 40.332031 68.554688 L 40.332031 68.210938 Z M 40.382812 68.015625 "/>
<path style=" stroke:none;fill-rule:nonzero;fill:rgb(34.509804%,42.352941%,52.156863%);fill-opacity:1;" d="M 43.601562 76.757812 L 43.652344 76.953125 L 43.210938 77.882812 L 43.066406 77.929688 L 43.164062 77.636719 Z M 43.601562 76.757812 "/>
<path style=" stroke:none;fill-rule:nonzero;fill:rgb(39.607843%,34.117647%,55.686275%);fill-opacity:1;" d="M 45.554688 45.898438 L 45.800781 45.945312 L 46.242188 46.242188 L 46.242188 46.335938 L 45.945312 46.289062 L 45.605469 46.046875 Z M 45.554688 45.898438 "/>
<path style=" stroke:none;fill-rule:nonzero;fill:rgb(39.607843%,31.372549%,60.392157%);fill-opacity:1;" d="M 44.09375 66.0625 L 44.140625 66.164062 L 44.09375 66.453125 L 43.652344 66.453125 L 43.652344 66.359375 L 43.507812 66.308594 L 43.847656 66.210938 Z M 44.09375 66.0625 "/>
<path style=" stroke:none;fill-rule:nonzero;fill:rgb(36.862745%,37.647059%,54.901961%);fill-opacity:1;" d="M 40.382812 67.140625 L 40.476562 67.1875 L 40.476562 67.96875 L 40.382812 68.210938 L 40.332031 68.210938 Z M 40.382812 67.140625 "/>
<path style=" stroke:none;fill-rule:nonzero;fill:rgb(41.568627%,30.196078%,58.823529%);fill-opacity:1;" d="M 66.015625 43.75 L 66.210938 43.796875 L 66.257812 43.945312 L 65.917969 44.042969 L 65.820312 43.992188 L 65.527344 43.945312 L 65.527344 43.898438 L 65.917969 43.898438 L 65.917969 43.796875 Z M 66.015625 43.75 "/>
<path style=" stroke:none;fill-rule:nonzero;fill:rgb(49.803922%,56.470588%,67.058824%);fill-opacity:1;" d="M 65.722656 56.835938 L 66.503906 56.933594 L 66.453125 57.078125 L 65.773438 56.984375 Z M 65.722656 56.835938 "/>
<path style=" stroke:none;fill-rule:nonzero;fill:rgb(34.901961%,41.176471%,53.333333%);fill-opacity:1;" d="M 59.132812 62.011719 L 59.277344 62.15625 L 59.617188 62.648438 L 59.960938 62.742188 L 59.914062 62.84375 L 59.523438 62.742188 L 59.132812 62.109375 Z M 59.132812 62.011719 "/>
<path style=" stroke:none;fill-rule:nonzero;fill:rgb(37.647059%,36.078431%,56.078431%);fill-opacity:1;" d="M 41.503906 78.757812 L 41.601562 78.757812 L 41.554688 79.445312 L 41.453125 79.6875 L 41.40625 79.6875 L 41.453125 79.054688 Z M 41.503906 78.757812 "/>
<path style=" stroke:none;fill-rule:nonzero;fill:rgb(35.686275%,39.215686%,54.901961%);fill-opacity:1;" d="M 42.53125 72.949219 L 42.578125 72.949219 L 42.53125 73.535156 L 42.429688 73.875 L 42.382812 73.875 L 42.382812 73.4375 Z M 42.53125 72.949219 "/>
<path style=" stroke:none;fill-rule:nonzero;fill:rgb(40.784314%,30.980392%,58.431373%);fill-opacity:1;" d="M 41.210938 80.566406 L 41.308594 80.566406 L 41.308594 80.8125 L 41.648438 80.761719 L 41.40625 81.007812 L 41.210938 80.90625 Z M 41.210938 80.566406 "/>
<path style=" stroke:none;fill-rule:nonzero;fill:rgb(41.568627%,30.196078%,58.823529%);fill-opacity:1;" d="M 57.960938 51.171875 L 58.203125 51.269531 L 58.25 51.367188 L 58.007812 51.515625 L 57.859375 51.464844 L 57.910156 51.21875 Z M 57.960938 51.171875 "/>
<path style=" stroke:none;fill-rule:nonzero;fill:rgb(36.862745%,37.647059%,54.509804%);fill-opacity:1;" d="M 59.8125 64.355469 L 59.8125 64.5 L 59.277344 65.085938 L 59.132812 65.1875 L 59.226562 64.992188 Z M 59.8125 64.355469 "/>
<path style=" stroke:none;fill-rule:nonzero;fill:rgb(41.568627%,30.196078%,58.823529%);fill-opacity:1;" d="M 47.167969 64.109375 L 47.363281 64.304688 L 47.65625 64.796875 L 47.609375 64.890625 L 47.3125 64.5 L 47.167969 64.210938 Z M 47.167969 64.109375 "/>
<path style=" stroke:none;fill-rule:nonzero;fill:rgb(43.529412%,54.509804%,60%);fill-opacity:1;" d="M 32.570312 56.203125 L 32.664062 56.25 L 32.519531 56.492188 L 32.46875 57.03125 L 32.375 56.933594 L 32.375 56.445312 Z M 32.570312 56.203125 "/>
<path style=" stroke:none;fill-rule:nonzero;fill:rgb(41.568627%,30.196078%,58.823529%);fill-opacity:1;" d="M 62.9375 45.800781 L 63.085938 45.945312 L 63.28125 46.335938 L 63.132812 46.386719 L 62.9375 45.945312 Z M 62.9375 45.800781 "/>
<path style=" stroke:none;fill-rule:nonzero;fill:rgb(31.764706%,50.980392%,44.313725%);fill-opacity:1;" d="M 35.546875 42.820312 L 35.890625 43.117188 L 36.230469 43.015625 L 36.035156 43.261719 L 35.839844 43.210938 L 35.546875 42.921875 Z M 35.546875 42.820312 "/>
<path style=" stroke:none;fill-rule:nonzero;fill:rgb(41.568627%,30.196078%,58.823529%);fill-opacity:1;" d="M 55.226562 63.867188 L 55.421875 63.964844 L 55.761719 64.304688 L 55.664062 64.5 L 55.566406 64.453125 L 55.617188 64.304688 L 55.226562 63.914062 Z M 55.226562 63.867188 "/>
<path style=" stroke:none;fill-rule:nonzero;fill:rgb(41.568627%,30.196078%,58.823529%);fill-opacity:1;" d="M 59.132812 57.226562 L 59.8125 57.226562 L 59.667969 57.324219 L 59.328125 57.375 L 59.132812 57.273438 Z M 59.132812 57.226562 "/>
</g>
</svg>
